<?xml version="1.0" encoding="UTF-8"?>
<svg id="_レイヤー_1" data-name="レイヤー 1" xmlns="http://www.w3.org/2000/svg" viewBox="0 0 79.37 113.39">
  <defs>
    <style>
      .cls-1 {
        fill: #c7d7ef;
      }

      .cls-1, .cls-2, .cls-3, .cls-4, .cls-5 {
        stroke: #231815;
        stroke-linejoin: round;
        stroke-width: .5px;
      }

      .cls-6 {
        font-family: YuKyo-Bold-83pv-RKSJ-H, YuKyokasho;
        font-size: 10px;
        font-weight: 700;
        letter-spacing: .05em;
      }

      .cls-6, .cls-7, .cls-2, .cls-8 {
        fill: #231815;
      }

      .cls-6, .cls-7, .cls-8 {
        glyph-orientation-vertical: 0deg;
        text-orientation: upright;
        writing-mode: tb;
      }

      .cls-7 {
        font-size: 4px;
        letter-spacing: .05em;
      }

      .cls-7, .cls-8 {
        font-family: YuKyo-Medium-83pv-RKSJ-H, YuKyokasho;
        font-weight: 500;
      }

      .cls-3 {
        fill: #e8e3d5;
      }

      .cls-4 {
        fill: #9e2036;
      }

      .cls-8 {
        font-size: 8px;
        letter-spacing: .02em;
      }

      .cls-5 {
        fill: none;
      }

      .cls-9 {
        fill: #faf6de;
        stroke: #5f5f5f;
        stroke-miterlimit: 10;
        stroke-width: .81px;
      }
    </style>
  </defs>
  <rect class="cls-9" width="79.37" height="113.39"/>
  <text class="cls-6" transform="translate(62.45 10.51)"><tspan x="0" y="0">東屋</tspan></text>
  <text class="cls-7" transform="translate(71.77 12.21)"><tspan x="0" y="0">あずまや</tspan></text>
  <text class="cls-8" transform="translate(15.23 9.76)"><tspan x="0" y="0">十点</tspan></text>
  <g>
    <path class="cls-3" d="M27.79,57.03v20.85c3.05.95,6.1,1.89,9.15,2.84v-20.64l-9.15-3.05Z"/>
    <path class="cls-3" d="M27.79,77.88c-.46.56-.92,1.12-1.38,1.68,3.51,1.02,7.02,2.05,10.53,3.07v-2.13c-3.05-.87-6.1-1.75-9.15-2.62Z"/>
    <path class="cls-3" d="M46.02,77.88c.45.5.9,1.01,1.35,1.51-3.48,1.08-6.95,2.16-10.43,3.24v-2.13c3.03-.87,6.05-1.75,9.08-2.62Z"/>
    <path class="cls-3" d="M27.79,57.03c3.05-1.21,6.1-2.41,9.15-3.62,3.03,1.21,6.05,2.41,9.08,3.62l-9.08,3.05-9.15-3.05Z"/>
    <path class="cls-3" d="M46.02,57.03v20.85c-3.03.95-6.05,1.89-9.08,2.84v-20.64l9.08-3.05Z"/>
  </g>
  <g>
    <ellipse class="cls-4" cx="17.16" cy="73.07" rx="2.4" ry="1.81"/>
    <path class="cls-4" d="M16.59,73.07h1.29c-.06-.97-.09-2.35.03-4,.2-2.72.6-3.2.75-3.36,1.39-1.48,4.68-.31,5.07-.16,0-.18-.02-1.71-1.32-2.73-1.28-1-2.75-.66-2.93-.62-.31-1.28-1.32-2.25-2.5-2.42-1.51-.22-3.09.88-3.46,2.62-.3.05-1.29.24-2.05,1.13-1.03,1.18-.82,2.63-.79,2.84.43-.21,3.02-1.44,4.37-.34.34.28.61.72,1.03,3.16.28,1.6.42,2.94.51,3.88Z"/>
    <path class="cls-5" d="M10.69,66.38c-.14.66-.25,1.48-.23,2.42,0,.59.06,1.12.14,1.58"/>
    <path class="cls-5" d="M23.68,65.43c.15.61.29,1.4.3,2.34.01.94-.11,1.75-.24,2.36"/>
    <circle class="cls-4" cx="11.14" cy="70.63" r=".71"/>
    <circle class="cls-4" cx="23.18" cy="70.13" r=".71"/>
  </g>
  <g>
    <path class="cls-1" d="M35.34,102.89c.15-1.85,1.41-14.32,12.42-22.24,13.16-9.46,28.19-3.77,29.22-3.36-1.97,4.83-3.94,9.66-5.91,14.49-.92-.33-6.29-2.12-11.94.75-6.24,3.18-7.73,9.46-7.92,10.31-5.29,0-10.59.02-15.88.03Z"/>
    <path class="cls-5" d="M75.37,76.68c-3.53,8.43-7.07,16.86-10.6,25.29-4.38-.17-8.77-.34-13.15-.52"/>
    <path class="cls-5" d="M53.5,97.61c3.76,1.45,7.52,2.9,11.28,4.35-.23-3.66-.45-7.32-.68-10.97"/>
    <path class="cls-5" d="M57.99,93.2c2.26,2.92,4.53,5.85,6.79,8.77"/>
    <path class="cls-2" d="M63.6,103.41c.2.05,1.03.25,1.92-.2.92-.47,1.24-1.3,1.31-1.48-.68.08-1.37.16-2.05.24-.39.48-.78.97-1.17,1.45Z"/>
  </g>
</svg>